<?xml version="1.0" encoding="UTF-8"?>
<svg version="1.1" xmlns="http://www.w3.org/2000/svg" width="1024" height="1024">
<path d="M0 0 C0.87718185 -0.00423477 1.75436371 -0.00846954 2.65812683 -0.01283264 C5.5364549 -0.02281075 8.41462626 -0.02273547 11.29296875 -0.01953125 C12.27241455 -0.018927 13.25186035 -0.01832275 14.26098633 -0.0177002 C43.25395312 0.03100552 72.57239892 1.48575992 100.78125 8.75 C103.91120836 9.23466794 106.40153014 8.83651229 109.48046875 8.16796875 C109.15046875 9.15796875 108.82046875 10.14796875 108.48046875 11.16796875 C109.08310547 11.24708496 109.68574219 11.32620117 110.30664062 11.40771484 C119.25844279 12.79216762 127.48986641 15.75321811 135.98046875 18.79296875 C138.15704414 19.56763303 140.33440792 20.33981393 142.51379395 21.10653687 C143.85887925 21.58015368 145.20231701 22.05848335 146.54382324 22.54214478 C149.34205039 23.53099021 151.48548248 24.16796875 154.48046875 24.16796875 C154.48046875 24.82796875 154.48046875 25.48796875 154.48046875 26.16796875 C155.68445313 26.52632812 156.8884375 26.8846875 158.12890625 27.25390625 C164.74829278 29.46554184 170.89266341 32.64493415 177.10546875 35.79296875 C178.03937943 36.26366287 178.03937943 36.26366287 178.99215698 36.74386597 C193.89539981 44.2654978 207.65758459 52.82124921 221.36328125 62.34765625 C223.65705569 63.93794825 225.93214242 65.43872512 228.328125 66.875 C230.36733852 68.10000848 232.02960191 69.39212592 233.79296875 70.98046875 C240.2244509 76.66429172 240.2244509 76.66429172 247.48046875 81.16796875 C249.17559547 82.81172799 250.83127167 84.47874262 252.48046875 86.16796875 C261.54728567 95.48157929 261.54728567 95.48157929 271.59765625 103.69140625 C273.48046875 105.16796875 273.48046875 105.16796875 275.29296875 107.91796875 C277.03170364 110.50123202 278.47056847 112.24414175 280.66796875 114.35546875 C285.37344203 118.94156427 289.41540588 124.01719658 293.48046875 129.16796875 C293.96290039 129.77398926 294.44533203 130.38000977 294.94238281 131.00439453 C303.37165781 141.63017991 310.92830225 152.67168693 318.15283203 164.14770508 C319.06604855 165.53734589 320.0319362 166.89331999 321.03833008 168.21704102 C323.11793284 171.03033129 324.5364387 174.15031468 326.04296875 177.29296875 C328.2487033 182.06602405 328.2487033 182.06602405 331.48046875 186.16796875 C332.07010488 187.50194752 332.60289649 188.86131161 333.10546875 190.23046875 C334.96118838 195.04287599 337.11608015 199.65220665 339.35546875 204.29296875 C343.25085085 212.40819622 346.46826663 220.69044535 349.48046875 229.16796875 C349.81046875 228.50796875 350.14046875 227.84796875 350.48046875 227.16796875 C350.81046875 227.49796875 351.14046875 227.82796875 351.48046875 228.16796875 C351.41472656 229.61816406 351.41472656 229.61816406 351.34765625 231.09765625 C351.28361709 236.14650364 353.01644482 240.55478081 354.60546875 245.29296875 C358.6861474 258.01336427 361.35258885 270.94074087 363.87011719 284.04736328 C364.24393582 285.95862318 364.63398086 287.86690806 365.05175781 289.76904297 C366.56444504 296.69681371 367.14925118 303.59823741 367.60546875 310.66796875 C367.68966064 311.95880371 367.77385254 313.24963867 367.8605957 314.57958984 C371.43757594 373.25375437 371.43757594 373.25375437 366.48046875 383.16796875 C366.5123229 385.04736334 366.5465714 386.92737756 366.640625 388.8046875 C366.41881415 392.07775011 365.382706 395.01520713 364.48046875 398.16796875 C363.48728449 402.52899778 362.59555942 406.90955692 361.71118164 411.29370117 C361.29158416 413.3622947 360.85973871 415.42810744 360.42773438 417.49414062 C360.15939814 418.81625261 359.89179405 420.13851345 359.625 421.4609375 C359.38112549 422.65227295 359.13725098 423.8436084 358.88598633 425.07104492 C358.51636552 427.89382636 358.52637388 429.52902628 359.48046875 432.16796875 C358.49046875 432.16796875 357.50046875 432.16796875 356.48046875 432.16796875 C356.38757568 432.73249756 356.29468262 433.29702637 356.19897461 433.87866211 C354.83754262 441.41362687 352.55333163 448.5068209 350.04296875 455.73046875 C349.716418 456.67297485 349.716418 456.67297485 349.38327026 457.63452148 C334.00085232 501.82408896 310.31999352 541.87924977 278.48046875 576.16796875 C277.37602027 577.3760445 276.27187785 578.5844001 275.16796875 579.79296875 C266.02406437 589.75556285 256.32860318 598.71054874 245.94506836 607.36425781 C243.6353063 609.29648661 241.41005292 611.23926478 239.29296875 613.3828125 C237.24085616 615.4039665 235.00299458 616.56575805 232.48828125 617.93359375 C230.21088579 619.33370458 228.27445789 620.94446571 226.23046875 622.66796875 C211.48194937 634.70848988 193.80012763 644.41614718 176.94921875 653.23046875 C175.29620476 654.10873358 175.29620476 654.10873358 174.48046875 656.16796875 C173.82046875 655.83796875 173.16046875 655.50796875 172.48046875 655.16796875 C170.22065283 655.91049345 170.22065283 655.91049345 167.65234375 657.125 C166.64123535 657.57319092 165.63012695 658.02138184 164.58837891 658.4831543 C163.48026855 658.97726807 162.3721582 659.47138184 161.23046875 659.98046875 C119.46493782 678.01123682 74.70953874 688.47388165 29.08203125 688.265625 C27.88105804 688.26421005 26.68008484 688.2627951 25.44271851 688.26133728 C21.66360826 688.25580727 17.88456062 688.24326859 14.10546875 688.23046875 C11.51953211 688.22544468 8.93359454 688.22088338 6.34765625 688.21679688 C0.05857294 688.20586091 -6.23047468 688.18919442 -12.51953125 688.16796875 C-12.51953125 687.50796875 -12.51953125 686.84796875 -12.51953125 686.16796875 C-13.71449219 686.21179688 -14.90945313 686.255625 -16.140625 686.30078125 C-22.72519066 686.2930755 -29.10655772 685.14799272 -35.58203125 684.04296875 C-36.56372284 683.87740479 -36.56372284 683.87740479 -37.56524658 683.70849609 C-54.86557082 680.77287439 -71.78952791 676.58629262 -88.47265625 671.1484375 C-90.09073562 670.62774786 -91.71752453 670.12240632 -93.37402344 669.74121094 C-98.2555373 668.43695576 -102.8746654 666.19471055 -107.51953125 664.23046875 C-109.24913086 663.50089966 -109.24913086 663.50089966 -111.01367188 662.7565918 C-119.35515224 659.19442041 -127.5015599 655.34536456 -135.55078125 651.16625977 C-136.31390625 650.77108154 -137.07703125 650.37590332 -137.86328125 649.96875 C-138.52521484 649.61981689 -139.18714844 649.27088379 -139.86914062 648.91137695 C-141.52177204 648.03106837 -141.52177204 648.03106837 -143.51953125 648.16796875 C-143.51953125 647.50796875 -143.51953125 646.84796875 -143.51953125 646.16796875 C-144.19113281 645.92949219 -144.86273438 645.69101562 -145.5546875 645.4453125 C-149.24285789 643.85633791 -152.5449287 641.83624291 -155.95703125 639.73046875 C-163.30740645 634.5600235 -163.30740645 634.5600235 -171.51953125 632.16796875 C-171.73351562 631.58917969 -171.9475 631.01039063 -172.16796875 630.4140625 C-173.99106952 627.38434301 -176.17800428 626.14803767 -179.14453125 624.23046875 C-193.07822395 614.92889364 -205.50434916 603.79845984 -217.51953125 592.16796875 C-218.46795898 591.25241211 -218.46795898 591.25241211 -219.43554688 590.31835938 C-221.28421109 588.52634473 -223.12297937 586.72492639 -224.95703125 584.91796875 C-225.5193042 584.36882813 -226.08157715 583.8196875 -226.66088867 583.25390625 C-227.98689086 581.93063289 -229.25908135 580.55382598 -230.51953125 579.16796875 C-230.51953125 578.50796875 -230.51953125 577.84796875 -230.51953125 577.16796875 C-231.17953125 577.16796875 -231.83953125 577.16796875 -232.51953125 577.16796875 C-234.05804891 575.44844901 -235.52684884 573.66609378 -236.95703125 571.85546875 C-239.37533948 568.80768326 -241.75995828 565.90441681 -244.51953125 563.16796875 C-245.51998738 561.89272067 -246.49840641 560.59995328 -247.45703125 559.29296875 C-249.22045185 556.90069741 -250.99994364 554.58641691 -252.89453125 552.29296875 C-254.51953125 550.16796875 -254.51953125 550.16796875 -254.51953125 548.16796875 C-255.17953125 548.16796875 -255.83953125 548.16796875 -256.51953125 548.16796875 C-256.79925781 547.63429688 -257.07898438 547.100625 -257.3671875 546.55078125 C-260.21951715 541.24966697 -263.39763376 536.37329306 -266.96875 531.52734375 C-268.53571087 529.1433529 -269.55570459 526.84579258 -270.51953125 524.16796875 C-271.17953125 524.16796875 -271.83953125 524.16796875 -272.51953125 524.16796875 C-272.9784375 523.22695313 -273.43734375 522.2859375 -273.91015625 521.31640625 C-274.52972897 520.05848589 -275.14953302 518.80067944 -275.76953125 517.54296875 C-276.06988281 516.92550781 -276.37023437 516.30804687 -276.6796875 515.671875 C-278.68555098 511.61747009 -280.95466679 507.90565584 -283.51953125 504.16796875 C-283.84953125 503.50796875 -284.17953125 502.84796875 -284.51953125 502.16796875 C-285.50953125 501.83796875 -286.49953125 501.50796875 -287.51953125 501.16796875 C-286.85953125 500.50796875 -286.19953125 499.84796875 -285.51953125 499.16796875 C-287.49953125 494.87796875 -289.47953125 490.58796875 -291.51953125 486.16796875 C-292.17953125 486.16796875 -292.83953125 486.16796875 -293.51953125 486.16796875 C-293.84953125 485.17796875 -294.17953125 484.18796875 -294.51953125 483.16796875 C-293.85953125 483.16796875 -293.19953125 483.16796875 -292.51953125 483.16796875 C-293.09703125 482.09546875 -293.67453125 481.02296875 -294.26953125 479.91796875 C-296.97258783 474.55047068 -298.72654569 468.89026308 -300.51953125 463.16796875 C-301.17953125 463.16796875 -301.83953125 463.16796875 -302.51953125 463.16796875 C-302.60203125 462.09546875 -302.68453125 461.02296875 -302.76953125 459.91796875 C-303.61413669 453.07544059 -305.68805802 445.9151786 -309.51953125 440.16796875 C-310.40178617 437.51604462 -310.94364802 434.91448879 -311.51953125 432.16796875 C-311.18953125 431.83796875 -310.85953125 431.50796875 -310.51953125 431.16796875 C-311.11138392 428.22952435 -311.75609955 425.33057814 -312.45703125 422.41796875 C-314.81706713 412.60395818 -314.81706713 412.60395818 -314.51953125 408.16796875 C-315.17953125 407.83796875 -315.83953125 407.50796875 -316.51953125 407.16796875 C-316.86328125 405.0078125 -316.86328125 405.0078125 -317.01953125 402.10546875 C-317.36732925 396.93197351 -317.87380537 391.81079831 -318.51953125 386.66796875 C-318.60267578 385.98597412 -318.68582031 385.30397949 -318.77148438 384.60131836 C-319.22145005 380.93302714 -319.22145005 380.93302714 -320.04170227 377.33583069 C-320.66083061 374.5269078 -320.65477943 371.89025651 -320.66479492 369.01342773 C-320.67117477 367.76790634 -320.67755463 366.52238495 -320.68412781 365.23912048 C-320.68565753 363.88076822 -320.68677093 362.52241543 -320.6875 361.1640625 C-320.69071683 359.76123521 -320.69408122 358.35840826 -320.69758606 356.95558167 C-320.70357168 354.01261621 -320.70542677 351.06968009 -320.70483398 348.12670898 C-320.70473291 344.38367913 -320.71833101 340.64084129 -320.73560619 336.89785671 C-320.74681637 333.9970669 -320.74875038 331.09632201 -320.74822426 328.19551277 C-320.74939292 326.81742764 -320.75375097 325.43934091 -320.76155663 324.06127739 C-320.79934198 316.69539037 -320.5461867 309.74449748 -318.94892883 302.53749084 C-318.49338736 300.0237003 -318.45360336 297.71792641 -318.51953125 295.16796875 C-318.51953125 294.17796875 -318.51953125 293.18796875 -318.51953125 292.16796875 C-318.18953125 292.16796875 -317.85953125 292.16796875 -317.51953125 292.16796875 C-317.37854004 291.40242676 -317.23754883 290.63688477 -317.09228516 289.84814453 C-316.44381235 286.32960862 -315.79417938 282.81128784 -315.14453125 279.29296875 C-314.9228125 278.08898437 -314.70109375 276.885 -314.47265625 275.64453125 C-313.33103486 269.4663449 -312.16451747 263.29893342 -310.86474609 257.15185547 C-310.43381461 255.01098722 -310.43381461 255.01098722 -310.51953125 252.16796875 C-309.52953125 251.17796875 -309.52953125 251.17796875 -308.51953125 250.16796875 C-307.71859632 248.01183205 -306.99291349 245.82752597 -306.3046875 243.6328125 C-305.86773625 242.26409557 -305.43004154 240.89561582 -304.99169922 239.52734375 C-304.76238708 238.80611328 -304.53307495 238.08488281 -304.29681396 237.34179688 C-295.37762184 209.43647712 -283.20255594 183.78924822 -267.61352539 159.00463867 C-266.47923546 157.10031751 -265.48835298 155.16090732 -264.51953125 153.16796875 C-263.51953125 151.16796875 -263.51953125 151.16796875 -261.8125 149.55078125 C-258.71399192 146.33086655 -256.34617337 142.72670378 -253.83203125 139.04296875 C-249.14812826 132.29004981 -244.17974627 126.13712339 -238.51953125 120.16796875 C-237.38776792 118.88222401 -236.26253346 117.59069709 -235.14453125 116.29296875 C-225.53314285 105.27666742 -215.63100384 94.68685795 -204.51953125 85.16796875 C-203.48891842 84.26247498 -202.4590275 83.35615917 -201.4296875 82.44921875 C-183.59937078 66.82817171 -164.03421818 53.96956343 -143.51953125 42.16796875 C-143.84953125 41.50796875 -144.17953125 40.84796875 -144.51953125 40.16796875 C-143.64385498 40.05638428 -142.76817871 39.9447998 -141.8659668 39.82983398 C-138.48192813 39.16053152 -136.03531973 38.146412 -132.9765625 36.578125 C-131.38642334 35.77967163 -131.38642334 35.77967163 -129.76416016 34.96508789 C-128.06525635 34.10645142 -128.06525635 34.10645142 -126.33203125 33.23046875 C-79.77949001 10.16796875 -79.77949001 10.16796875 -59.51953125 10.16796875 C-59.18953125 9.50796875 -58.85953125 8.84796875 -58.51953125 8.16796875 C-56.04174805 7.60766602 -56.04174805 7.60766602 -52.78125 7.171875 C-51.60095215 7.00703613 -50.4206543 6.84219727 -49.20458984 6.67236328 C-47.98852051 6.50591309 -46.77245117 6.33946289 -45.51953125 6.16796875 C-43.31689653 5.82813735 -41.11504024 5.48321528 -38.9140625 5.1328125 C-36.72005208 4.79036458 -34.52604167 4.44791667 -32.33203125 4.10546875 C-31.23439453 3.93208984 -30.13675781 3.75871094 -29.00585938 3.58007812 C-23.12804875 2.66637439 -17.28508636 1.88817337 -11.35424805 1.41625977 C-0.89848333 0.00128801 -0.89848333 0.00128801 0 0 Z M-309.51953125 434.16796875 C-308.51953125 438.16796875 -308.51953125 438.16796875 -308.51953125 438.16796875 Z " fill="#D52131" transform="translate(488.51953125,167.83203125)"/>
<path d="M0 0 C9.95134849 6.85056599 15.789558 16.33791941 19.8046875 27.66796875 C21.90483296 41.31891421 20.08557123 55.27566042 12.125 66.75 C3.71370274 77.70967049 -6.23165226 84.13306476 -19.875 86.75 C-33.02137994 88.21140579 -44.94075377 86.26862859 -55.8515625 78.37109375 C-66.47495255 69.86007663 -71.55744172 59.86298159 -74.5625 46.75 C-76.0364782 32.59980927 -72.57148523 19.38266972 -63.75390625 8.015625 C-47.05344679 -10.0833951 -20.86294135 -12.35380131 0 0 Z " fill="#FEFDFD" transform="translate(568.875,300.25)"/>
<path d="M0 0 C3.32701466 2.05506752 6.17313451 4.30317032 9 7 C9.62390625 7.58394531 10.2478125 8.16789062 10.890625 8.76953125 C20.14216058 18.32274734 23.30307332 30.0510539 23.31469727 42.93554688 C23.10024445 55.61491105 18.35961289 65.30904594 9.67578125 74.4453125 C-2.16072119 85.70578421 -14.48701351 88.65500184 -30.36328125 88.30859375 C-41.87120653 87.75090021 -52.93946579 81.63542188 -60.8125 73.3125 C-69.59743447 62.41580243 -73.31677452 49.83446647 -72 36 C-69.31636254 21.63370124 -62.76972771 10.71766717 -51 2 C-47.76373501 0.05061505 -44.50470133 -1.59246673 -41 -3 C-39.67742188 -3.54527344 -39.67742188 -3.54527344 -38.328125 -4.1015625 C-25.90289782 -7.45579049 -11.33234297 -5.94385141 0 0 Z " fill="#FEFDFD" transform="translate(676,399)"/>
<path d="M0 0 C11.14283078 8.03976398 17.37971128 17.67690372 20.1875 31.1875 C21.55787902 44.93696954 18.80099792 57.50457056 10.40234375 68.53125 C2.40125954 78.07528683 -7.37361597 84.17585345 -19.99414062 85.39892578 C-33.90494728 86.22189335 -44.12495433 84.00014254 -55.8125 76.1875 C-57.1428125 75.32125 -57.1428125 75.32125 -58.5 74.4375 C-67.38566521 65.79198791 -72.80948637 54.72230022 -73.15600586 42.3840332 C-73.34057057 26.94784202 -69.50948805 16.26333413 -58.75 5.03515625 C-43.07909267 -9.99212453 -18.19683217 -11.35019799 0 0 Z " fill="#FEFDFD" transform="translate(530.8125,458.8125)"/>
<path d="M0 0 C0.33 0 0.66 0 1 0 C0.87951318 2.33363951 0.75437296 4.66684365 0.625 7 C0.58318604 7.75982178 0.54137207 8.51964355 0.49829102 9.30249023 C0.24352956 13.66130639 -0.08074126 18.0025553 -0.51171875 22.34765625 C-2.84245163 46.13934698 -2.63779688 69.76641561 -0.4375 93.55859375 C-0.0020493 98.39532833 0.08032513 103.14535007 0 108 C-0.33 108 -0.66 108 -1 108 C-1.13277344 106.89140625 -1.26554688 105.7828125 -1.40234375 104.640625 C-1.58059757 103.1770673 -1.75899028 101.71352651 -1.9375 100.25 C-2.02451172 99.52039063 -2.11152344 98.79078125 -2.20117188 98.0390625 C-2.6607501 94.05249791 -2.6607501 94.05249791 -3.52436829 90.14149475 C-4.14591458 87.34303098 -4.13528258 84.71240522 -4.14526367 81.84545898 C-4.15483345 79.9771769 -4.15483345 79.9771769 -4.16459656 78.07115173 C-4.16612628 76.71279947 -4.16723968 75.35444668 -4.16796875 73.99609375 C-4.17118558 72.59326646 -4.17454997 71.19043951 -4.17805481 69.78761292 C-4.18404043 66.84464746 -4.18589552 63.90171134 -4.18530273 60.95874023 C-4.18520166 57.21571038 -4.19879976 53.47287254 -4.21607494 49.72988796 C-4.22728512 46.82909815 -4.22921913 43.92835326 -4.22869301 41.02754402 C-4.22986167 39.64945889 -4.23421972 38.27137216 -4.24202538 36.89330864 C-4.27981073 29.52742162 -4.02665545 22.57652873 -2.42939758 15.36952209 C-1.97385611 12.85573155 -1.93407211 10.54995766 -2 8 C-2 7.01 -2 6.02 -2 5 C-1.67 5 -1.34 5 -1 5 C-0.67 3.35 -0.34 1.7 0 0 Z " fill="#AF4148" transform="translate(172,455)"/>
<path d="M0 0 C0.66 0.33 1.32 0.66 2 1 C1.3503125 1.5878125 1.3503125 1.5878125 0.6875 2.1875 C-1.09760464 3.96512959 -1.09760464 3.96512959 -2.3125 6.30859375 C-7.58650936 14.72015034 -16.73971356 22.49314237 -25 28 C-23.59598688 24.85244117 -21.92153964 22.62854507 -19.55078125 20.13671875 C-18.86693359 19.41419922 -18.18308594 18.69167969 -17.47851562 17.94726562 C-16.76373047 17.20154297 -16.04894531 16.45582031 -15.3125 15.6875 C-14.61705078 14.95337891 -13.92160156 14.21925781 -13.20507812 13.46289062 C-8.87301374 8.90431307 -4.47041202 4.42284508 0 0 Z " fill="#C83742" transform="translate(276,260)"/>
<path d="M0 0 C6.80586354 -0.10488488 13.52227813 -0.01118715 20.3125 0.46875 C29.36929418 1.07375337 38.42724826 1.33052085 47.5 1.5625 C49.11328823 1.60586098 50.72656955 1.64947962 52.33984375 1.69335938 C56.22648977 1.79852714 60.11321094 1.90026474 64 2 C64 2.33 64 2.66 64 3 C45.85 3 27.7 3 9 3 C9 2.34 9 1.68 9 1 C6.03 1 3.06 1 0 1 C0 0.67 0 0.34 0 0 Z " fill="#A34046" transform="translate(467,853)"/>
<path d="M0 0 C0.70125 0.144375 1.4025 0.28875 2.125 0.4375 C5.07556141 1.01478375 8.03270151 1.51695141 11 2 C11 2.66 11 3.32 11 4 C12.2375 4.37125 13.475 4.7425 14.75 5.125 C20.80291599 7.12333111 26.36354009 10.05301842 32 13 C31.01 13.66 30.02 14.32 29 15 C28.34 14.67 27.68 14.34 27 14 C27 13.34 27 12.68 27 12 C26.16726563 11.89558594 25.33453125 11.79117188 24.4765625 11.68359375 C20.56251785 10.91397823 17.04093552 9.58510469 13.375 8.0625 C12.72015625 7.79759766 12.0653125 7.53269531 11.390625 7.25976562 C8.19572696 5.95658353 5.05541012 4.60525354 2 3 C2 2.34 2 1.68 2 1 C1.34 0.67 0.68 0.34 0 0 Z " fill="#D1313D" transform="translate(632,190)"/>
<path d="M0 0 C13.64307417 -0.42098629 26.54337491 0.75053431 40 3 C40 3.33 40 3.66 40 4 C36.7 4.33 33.4 4.66 30 5 C30 4.34 30 3.68 30 3 C28.329375 3.2784375 28.329375 3.2784375 26.625 3.5625 C21.65935745 4.20322807 16.93938863 3.65791037 12 3 C12 2.67 12 2.34 12 2 C8.04 1.67 4.08 1.34 0 1 C0 0.67 0 0.34 0 0 Z " fill="#D1323E" transform="translate(532,170)"/>
<path d="M0 0 C1.24716797 0.10828125 1.24716797 0.10828125 2.51953125 0.21875 C3.60621094 0.3115625 4.69289063 0.404375 5.8125 0.5 C6.89144531 0.5928125 7.97039063 0.685625 9.08203125 0.78125 C12.01090811 1.03737838 12.01090811 1.03737838 15 1 C14.67 1.66 14.34 2.32 14 3 C14.72445312 3.12117187 15.44890625 3.24234375 16.1953125 3.3671875 C21.28497573 4.24939579 26.14883346 5.16442347 31 7 C24.688396 9.27217744 17.3562314 6.46374335 11.0625 4.9375 C10.28326172 4.75123047 9.50402344 4.56496094 8.70117188 4.37304688 C6.80010303 3.91818991 4.89995343 3.4594938 3 3 C3 2.34 3 1.68 3 1 C2.01 0.67 1.02 0.34 0 0 Z " fill="#CF343F" transform="translate(583,176)"/>
<path d="M0 0 C0.33 0 0.66 0 1 0 C0.29306149 13.69228279 -0.81507922 27.34150272 -2 41 C-2.33 41 -2.66 41 -3 41 C-4.49878762 23.7234346 -4.49878762 23.7234346 -2.47265625 15.296875 C-1.95860787 12.79885479 -1.92931622 10.54461618 -2 8 C-2 7.01 -2 6.02 -2 5 C-1.67 5 -1.34 5 -1 5 C-0.67 3.35 -0.34 1.7 0 0 Z " fill="#B63B44" transform="translate(172,455)"/>
<path d="M0 0 C-3.26459506 1.36957005 -6.53753177 2.71794485 -9.8125 4.0625 C-10.74126953 4.45244141 -11.67003906 4.84238281 -12.62695312 5.24414062 C-13.51962891 5.60830078 -14.41230469 5.97246094 -15.33203125 6.34765625 C-16.15421143 6.68804932 -16.9763916 7.02844238 -17.82348633 7.37915039 C-20 8 -20 8 -23 7 C-20.85162295 4.58599935 -19.18487599 3.49134538 -16.09375 2.578125 C-15.34996094 2.35769531 -14.60617187 2.13726563 -13.83984375 1.91015625 C-13.06769531 1.69230469 -12.29554688 1.47445312 -11.5 1.25 C-10.72785156 1.01667969 -9.95570313 0.78335938 -9.16015625 0.54296875 C-3.38530554 -1.12843518 -3.38530554 -1.12843518 0 0 Z " fill="#BE2934" transform="translate(647,829)"/>
<path d="M0 0 C0.33 0.66 0.66 1.32 1 2 C0.36328125 3.875 0.36328125 3.875 -0.6875 6 C-1.02136719 6.70125 -1.35523438 7.4025 -1.69921875 8.125 C-3.22700622 10.32721618 -4.6226818 10.86280862 -7 12 C-7.66347631 14.48400985 -7.66347631 14.48400985 -8 17 C-8.66 17.66 -9.32 18.32 -10 19 C-10.64428711 17.22949219 -10.64428711 17.22949219 -11 15 C-10.10375977 13.16894531 -10.10375977 13.16894531 -8.69140625 11.328125 C-7.94213867 10.33232422 -7.94213867 10.33232422 -7.17773438 9.31640625 C-6.64470703 8.63449219 -6.11167969 7.95257813 -5.5625 7.25 C-5.03333984 6.55261719 -4.50417969 5.85523438 -3.95898438 5.13671875 C-2.65063171 3.41582245 -1.32676048 1.70674468 0 0 Z " fill="#C8333E" transform="translate(239,301)"/>
<path d="M0 0 C-3.64578405 3.32875935 -8.21084385 5.0219329 -13 6 C-15.28125 5.578125 -15.28125 5.578125 -17 5 C-11.74943919 0.55721778 -6.76666011 -0.2706664 0 0 Z " fill="#DA2E3B" transform="translate(411,184)"/>
<path d="M0 0 C2.64 0 5.28 0 8 0 C8 0.66 8 1.32 8 2 C8.62648438 1.97679687 9.25296875 1.95359375 9.8984375 1.9296875 C10.71570313 1.91164063 11.53296875 1.89359375 12.375 1.875 C13.18710937 1.85179687 13.99921875 1.82859375 14.8359375 1.8046875 C17 2 17 2 19 4 C19.99 4.66 20.98 5.32 22 6 C14.36945905 5.38955672 7.29810526 3.20378179 0 1 C0 0.67 0 0.34 0 0 Z " fill="#B52D38" transform="translate(410,841)"/>
<path d="M0 0 C0.66 0.33 1.32 0.66 2 1 C0.75 3.4375 0.75 3.4375 -1 6 C-1.86625 6.17015625 -1.86625 6.17015625 -2.75 6.34375 C-6.12578234 7.32835318 -8.26274933 9.68949313 -10.75 12.0625 C-11.25660156 12.53494141 -11.76320313 13.00738281 -12.28515625 13.49414062 C-13.52949613 14.65630711 -14.76558064 15.82730161 -16 17 C-16.66 16.67 -17.32 16.34 -18 16 C-12.44711982 10.10598724 -6.32463411 5.04369556 0 0 Z " fill="#C13A44" transform="translate(298,241)"/>
<path d="M0 0 C0.33 0 0.66 0 1 0 C0.87431641 1.15628906 0.87431641 1.15628906 0.74609375 2.3359375 C0.64425781 3.33882812 0.54242187 4.34171875 0.4375 5.375 C0.33308594 6.37273438 0.22867188 7.37046875 0.12109375 8.3984375 C-0.21144708 10.984037 -0.21144708 10.984037 1 13 C0.01 13 -0.98 13 -2 13 C-2.66 16.3 -3.32 19.6 -4 23 C-4.33 23 -4.66 23 -5 23 C-4.44196746 17.88470175 -3.61502096 12.98165578 -2.40234375 7.98046875 C-1.90045554 5.84683008 -1.90045554 5.84683008 -2 3 C-1.34 3 -0.68 3 0 3 C0 2.01 0 1.02 0 0 Z " fill="#B3363F" transform="translate(847,587)"/>
<path d="M0 0 C3.62276315 1.3255581 6.63505348 2.94346955 9.8125 5.125 C10.60269531 5.66382813 11.39289062 6.20265625 12.20703125 6.7578125 C12.79871094 7.16773438 13.39039063 7.57765625 14 8 C12.29296875 8.671875 12.29296875 8.671875 10 9 C7.67578125 7.890625 7.67578125 7.890625 5.3125 6.25 C4.52488281 5.71890625 3.73726562 5.1878125 2.92578125 4.640625 C1 3 1 3 0 0 Z " fill="#CE323E" transform="translate(685,215)"/>
<path d="M0 0 C6.17222879 1.24028238 12.06682122 2.89603589 18 5 C15 7 15 7 12.625 6.57421875 C11.75875 6.28160156 10.8925 5.98898438 10 5.6875 C9.13375 5.40261719 8.2675 5.11773437 7.375 4.82421875 C6.199375 4.41623047 6.199375 4.41623047 5 4 C4.01 3.67 3.02 3.34 2 3 C2 2.34 2 1.68 2 1 C1.34 0.67 0.68 0.34 0 0 Z " fill="#D1323E" transform="translate(614,184)"/>
<path d="M0 0 C9.71614177 -0.14973506 19.31629705 0.30386731 29 1 C29 1.33 29 1.66 29 2 C22.4 2.33 15.8 2.66 9 3 C9 2.34 9 1.68 9 1 C6.03 1 3.06 1 0 1 C0 0.67 0 0.34 0 0 Z " fill="#AC323C" transform="translate(467,853)"/>
<path d="M0 0 C0.33 0 0.66 0 1 0 C1 4.29 1 8.58 1 13 C0.34 13 -0.32 13 -1 13 C-1 14.32 -1 15.64 -1 17 C-1.66 17 -2.32 17 -3 17 C-2.88597936 14.72858891 -2.75841495 12.45785448 -2.625 10.1875 C-2.55539062 8.92292969 -2.48578125 7.65835937 -2.4140625 6.35546875 C-2 3 -2 3 0 0 Z " fill="#D62E3A" transform="translate(701,434)"/>
<path d="M0 0 C3.520309 1.61743927 5.31119269 3.07120925 6.875 6.5625 C8 10 8 10 7 12 C5.82767315 10.3790787 4.6622923 8.75313167 3.5 7.125 C2.8503125 6.22007812 2.200625 5.31515625 1.53125 4.3828125 C0 2 0 2 0 0 Z " fill="#C12C38" transform="translate(222,698)"/>
<path d="M0 0 C1 2 1 2 0.8125 3.875 C-0.23011927 6.6018504 -1.9463852 7.9463852 -4 10 C-4.350625 10.886875 -4.70125 11.77375 -5.0625 12.6875 C-5.5265625 13.8321875 -5.5265625 13.8321875 -6 15 C-6.99 15.33 -7.98 15.66 -9 16 C-7.56691865 12.04093183 -5.66858051 8.71281819 -3.375 5.1875 C-2.74335938 4.21167969 -2.11171875 3.23585938 -1.4609375 2.23046875 C-0.73777344 1.12638672 -0.73777344 1.12638672 0 0 Z " fill="#BA3B45" transform="translate(223,324)"/>
<path d="M0 0 C5.26371362 -0.50130606 7.9090934 0.68831371 12 4 C12 4.66 12 5.32 12 6 C7.76570244 4.68938409 3.92592596 3.05643741 0 1 C0 0.67 0 0.34 0 0 Z " fill="#C32734" transform="translate(351,817)"/>
<path d="M0 0 C3.01357974 2.87659884 4.95458757 4.84198305 5.125 9.1875 C5.08375 10.115625 5.0425 11.04375 5 12 C-0.27293578 5.04931193 -0.27293578 5.04931193 0 0 Z " fill="#C72A37" transform="translate(208,672)"/>
<path d="M0 0 C-0.33 1.32 -0.66 2.64 -1 4 C-2.32 4 -3.64 4 -5 4 C-5.33 4.99 -5.66 5.98 -6 7 C-7.32 6.67 -8.64 6.34 -10 6 C-8.71283353 4.99421411 -7.42011342 3.99553202 -6.125 3 C-5.40570313 2.443125 -4.68640625 1.88625 -3.9453125 1.3125 C-2 0 -2 0 0 0 Z " fill="#D0333F" transform="translate(322,225)"/>
<path d="M0 0 C0.66 0.33 1.32 0.66 2 1 C-0.59733274 3.87561839 -2.21345482 5.24269096 -6 6 C-6.66 6.66 -7.32 7.32 -8 8 C-8.66 7.34 -9.32 6.68 -10 6 C-8.3811004 4.96951963 -6.75467511 3.95085322 -5.125 2.9375 C-4.22007812 2.36902344 -3.31515625 1.80054688 -2.3828125 1.21484375 C-1.20332031 0.61349609 -1.20332031 0.61349609 0 0 Z " fill="#CD3640" transform="translate(338,214)"/>
<path d="M0 0 C0.33 0 0.66 0 1 0 C1.19294408 4.82360189 0.75747614 8.49646738 -1 13 C-1.66 12.67 -2.32 12.34 -3 12 C-2.40075776 7.80530429 -1.42500059 3.99000166 0 0 Z " fill="#CC2733" transform="translate(839,612)"/>
<path d="M0 0 C4.05281712 1.22527029 7.44360764 2.69880494 11 5 C7.79937313 6.60031344 5.27728194 5.03173691 2 4 C2 3.34 2 2.68 2 2 C1.34 2 0.68 2 0 2 C0 1.34 0 0.68 0 0 Z " fill="#CD323E" transform="translate(670,207)"/>
<path d="M0 0 C2.97 0.495 2.97 0.495 6 1 C5.67 1.99 5.34 2.98 5 4 C2.93359375 4.73046875 2.93359375 4.73046875 0.4375 5.1875 C-0.38878906 5.34605469 -1.21507812 5.50460938 -2.06640625 5.66796875 C-3.02353516 5.83232422 -3.02353516 5.83232422 -4 6 C-2.36587557 4.29159719 -1.13093906 3.06546953 1 2 C0.67 1.34 0.34 0.68 0 0 Z " fill="#CF3540" transform="translate(344,208)"/>
<path d="M0 0 C0.66 0.33 1.32 0.66 2 1 C-0.59692816 4.89539223 -2.83425768 5.91712884 -7 8 C-7.66 7.67 -8.32 7.34 -9 7 C-6.03 4.69 -3.06 2.38 0 0 Z " fill="#C23B44" transform="translate(310,232)"/>
<path d="M0 0 C4.54805635 -0.17835515 7.8794254 0.00214565 12 2 C12 2.33 12 2.66 12 3 C10.56163249 2.88541307 9.12429034 2.75790884 7.6875 2.625 C6.88699219 2.55539062 6.08648437 2.48578125 5.26171875 2.4140625 C3 2 3 2 0 0 Z " fill="#D71928" transform="translate(426,844)"/>
<path d="M0 0 C3.375 0.25 3.375 0.25 7 1 C8.4375 3.0625 8.4375 3.0625 9 5 C6.03 4.505 6.03 4.505 3 4 C3 3.34 3 2.68 3 2 C2.01 1.67 1.02 1.34 0 1 C0 0.67 0 0.34 0 0 Z " fill="#BB2C38" transform="translate(342,812)"/>
<path d="M0 0 C0.99 0 1.98 0 3 0 C1.8141763 3.37503669 0.72426311 5.64722731 -2 8 C-2.20086443 4.28400809 -2.1519437 3.22791555 0 0 Z " fill="#BD2D38" transform="translate(805,688)"/>
<path d="M0 0 C0 3.90838866 -1.50567876 5.11594107 -4 8 C-4.33 6.35 -4.66 4.7 -5 3 C-4.01 3.33 -3.02 3.66 -2 4 C-2 3.01 -2 2.02 -2 1 C-1.34 0.67 -0.68 0.34 0 0 Z " fill="#BB2E38" transform="translate(798,702)"/>
<path d="M0 0 C0.33 0 0.66 0 1 0 C2.12029814 5.48946087 1.79217969 8.83430559 0 14 C-0.33 14 -0.66 14 -1 14 C-1.08333357 9.1666528 -0.95261487 4.76307437 0 0 Z " fill="#A84148" transform="translate(853,552)"/>
<path d="M0 0 C0.33 0 0.66 0 1 0 C1 2.97 1 5.94 1 9 C0.67 9 0.34 9 0 9 C0 6.03 0 3.06 0 0 Z " fill="#CA3440" transform="translate(168,467)"/>
<path d="M0 0 C2.31 0 4.62 0 7 0 C7 0.33 7 0.66 7 1 C4.69 1 2.38 1 0 1 C0 0.67 0 0.34 0 0 Z " fill="#D03842" transform="translate(471,168)"/>
<path d="M0 0 C0.33 0 0.66 0 1 0 C1 1.65 1 3.3 1 5 C0.34 4.01 -0.32 3.02 -1 2 C-0.67 1.34 -0.34 0.68 0 0 Z " fill="#CC323E" transform="translate(170,563)"/>
<path d="M0 0 C0.66 1.32 1.32 2.64 2 4 C1.01 4.495 1.01 4.495 0 5 C0 3.35 0 1.7 0 0 Z " fill="#C9343F" transform="translate(852,443)"/>
<path d="M0 0 C1.65 0 3.3 0 5 0 C3.02 0.99 3.02 0.99 1 2 C0.67 1.34 0.34 0.68 0 0 Z " fill="#D13844" transform="translate(423,176)"/>
<path d="M0 0 C0.66 0.66 1.32 1.32 2 2 C1.01 2 0.02 2 -1 2 C-0.67 1.34 -0.34 0.68 0 0 Z " fill="#C02E37" transform="translate(284,773)"/>
<path d="M0 0 C0.99 0.33 1.98 0.66 3 1 C2.01 1 1.02 1 0 1 C0 0.67 0 0.34 0 0 Z " fill="#BF2B38" transform="translate(250,740)"/>
<path d="M0 0 C0.99 0.495 0.99 0.495 2 1 C1.67 1.66 1.34 2.32 1 3 C0.67 2.01 0.34 1.02 0 0 Z " fill="#C12E3A" transform="translate(227,709)"/>
<path d="M0 0 C0.99 0.33 1.98 0.66 3 1 C2.01 1 1.02 1 0 1 C0 0.67 0 0.34 0 0 Z " fill="#C53541" transform="translate(725,240)"/>
<path d="M0 0 C0.99 0.33 1.98 0.66 3 1 C2.01 1 1.02 1 0 1 C0 0.67 0 0.34 0 0 Z " fill="#CF3942" transform="translate(352,203)"/>
<path d="M0 0 C3 1 3 1 3 1 Z " fill="#BD2A37" transform="translate(468,855)"/>
<path d="M0 0 C3 1 3 1 3 1 Z " fill="#BE2C37" transform="translate(601,845)"/>
<path d="M0 0 C3 1 3 1 3 1 Z " fill="#B92C36" transform="translate(375,831)"/>
<path d="M0 0 C0.33 0.66 0.66 1.32 1 2 C0.34 1.67 -0.32 1.34 -1 1 C-0.67 0.67 -0.34 0.34 0 0 Z " fill="#C02E3B" transform="translate(806,694)"/>
<path d="" fill="#C3313D" transform="translate(0,0)"/>
<path d="" fill="#C9323F" transform="translate(0,0)"/>
<path d="M0 0 C0.66 0 1.32 0 2 0 C1.67 0.66 1.34 1.32 1 2 C0.67 1.34 0.34 0.68 0 0 Z " fill="#CD3540" transform="translate(169,456)"/>
<path d="M0 0 C0.33 0.66 0.66 1.32 1 2 C0.34 1.67 -0.32 1.34 -1 1 C-0.67 0.67 -0.34 0.34 0 0 Z " fill="#C43541" transform="translate(847,421)"/>
<path d="M0 0 C0.66 0.66 1.32 1.32 2 2 C1.34 2 0.68 2 0 2 C0 1.34 0 0.68 0 0 Z " fill="#C63340" transform="translate(837,392)"/>
<path d="" fill="#CC3743" transform="translate(0,0)"/>
<path d="M0 0 C0.66 0 1.32 0 2 0 C1.67 0.66 1.34 1.32 1 2 C0.67 1.34 0.34 0.68 0 0 Z " fill="#CE3743" transform="translate(313,226)"/>
<path d="M0 0 C0.33 0.66 0.66 1.32 1 2 C0.34 1.67 -0.32 1.34 -1 1 C-0.67 0.67 -0.34 0.34 0 0 Z " fill="#CB3642" transform="translate(663,200)"/>
<path d="M0 0 C3 1 3 1 3 1 Z " fill="#CE3842" transform="translate(377,192)"/>
<path d="M0 0 C0.33 0.66 0.66 1.32 1 2 C0.34 1.67 -0.32 1.34 -1 1 C-0.67 0.67 -0.34 0.34 0 0 Z " fill="#D23541" transform="translate(606,178)"/>
<path d="M0 0 C3 1 3 1 3 1 Z " fill="#D13641" transform="translate(598,177)"/>
<path d="M0 0 C3 1 3 1 3 1 Z " fill="#CE3841" transform="translate(547,168)"/>
<path d="M0 0 C2 1 2 1 2 1 Z " fill="#BB2C37" transform="translate(597,847)"/>
<path d="M0 0 C2 1 2 1 2 1 Z " fill="#BD2C36" transform="translate(421,846)"/>
<path d="M0 0 C2 1 2 1 2 1 Z " fill="#B72E38" transform="translate(622,839)"/>
<path d="M0 0 C2 1 2 1 2 1 Z " fill="#BA2A36" transform="translate(397,839)"/>
<path d="M0 0 C2 1 2 1 2 1 Z " fill="#BD2A35" transform="translate(395,838)"/>
<path d="M0 0 C2 1 2 1 2 1 Z " fill="#BB2C35" transform="translate(647,829)"/>
<path d="" fill="#BE2D37" transform="translate(0,0)"/>
<path d="M0 0 C2 1 2 1 2 1 Z " fill="#BE2C39" transform="translate(354,821)"/>
<path d="M0 0 C2 1 2 1 2 1 Z " fill="#B72A38" transform="translate(694,807)"/>
<path d="" fill="#BB3039" transform="translate(0,0)"/>
<path d="" fill="#BD303A" transform="translate(0,0)"/>
<path d="M0 0 C2 1 2 1 2 1 Z " fill="#C1303C" transform="translate(233,719)"/>
<path d="" fill="#BE313B" transform="translate(0,0)"/>
<path d="M0 0 C2 1 2 1 2 1 Z " fill="#BD313D" transform="translate(814,685)"/>
<path d="" fill="#C32F3D" transform="translate(0,0)"/>
<path d="" fill="#C1313D" transform="translate(0,0)"/>
<path d="" fill="#BE323C" transform="translate(0,0)"/>
<path d="" fill="#BF333D" transform="translate(0,0)"/>
<path d="" fill="#BF313C" transform="translate(0,0)"/>
<path d="" fill="#C6303B" transform="translate(0,0)"/>
<path d="" fill="#C32F3C" transform="translate(0,0)"/>
<path d="" fill="#CA303B" transform="translate(0,0)"/>
<path d="" fill="#C1323D" transform="translate(0,0)"/>
<path d="" fill="#C6333F" transform="translate(0,0)"/>
<path d="" fill="#C2333E" transform="translate(0,0)"/>
<path d="" fill="#CA323F" transform="translate(0,0)"/>
<path d="" fill="#CD3140" transform="translate(0,0)"/>
<path d="" fill="#C83541" transform="translate(0,0)"/>
<path d="" fill="#C33540" transform="translate(0,0)"/>
<path d="" fill="#C43342" transform="translate(0,0)"/>
<path d="" fill="#CF323F" transform="translate(0,0)"/>
<path d="" fill="#CB3541" transform="translate(0,0)"/>
<path d="" fill="#CA3441" transform="translate(0,0)"/>
<path d="" fill="#CA3742" transform="translate(0,0)"/>
<path d="" fill="#CF3641" transform="translate(0,0)"/>
<path d="M0 0 C2 1 2 1 2 1 Z " fill="#C63743" transform="translate(798,317)"/>
<path d="M0 0 C2 1 2 1 2 1 Z " fill="#CD3843" transform="translate(248,283)"/>
<path d="M0 0 C2 1 2 1 2 1 Z " fill="#CF3543" transform="translate(281,253)"/>
<path d="" fill="#CC3842" transform="translate(0,0)"/>
<path d="M0 0 C2 1 2 1 2 1 Z " fill="#CF3842" transform="translate(316,225)"/>
<path d="M0 0 C2 1 2 1 2 1 Z " fill="#C43941" transform="translate(702,224)"/>
<path d="M0 0 C2 1 2 1 2 1 Z " fill="#CD3640" transform="translate(694,218)"/>
<path d="" fill="#C83541" transform="translate(0,0)"/>
<path d="M0 0 C2 1 2 1 2 1 Z " fill="#C93A43" transform="translate(360,200)"/>
<path d="M0 0 C2 1 2 1 2 1 Z " fill="#CB3A42" transform="translate(644,192)"/>
<path d="M0 0 C2 1 2 1 2 1 Z " fill="#D03842" transform="translate(399,184)"/>
<path d="M0 0 C2 1 2 1 2 1 Z " fill="#D03540" transform="translate(604,177)"/>
<path d="M0 0 C2 1 2 1 2 1 Z " fill="#D33541" transform="translate(561,170)"/>
<path d="M0 0 C2 1 2 1 2 1 Z " fill="#D13641" transform="translate(552,168)"/>
<path d="M0 0 C2 1 2 1 2 1 Z " fill="#CD3541" transform="translate(542,168)"/>
<path d="" fill="#6D3236" transform="translate(0,0)"/>
<path d="" fill="#504343" transform="translate(0,0)"/>
<path d="" fill="#535150" transform="translate(0,0)"/>
<path d="" fill="#4F4544" transform="translate(0,0)"/>
<path d="" fill="#4E4E4C" transform="translate(0,0)"/>
<path d="" fill="#585957" transform="translate(0,0)"/>
<path d="" fill="#643435" transform="translate(0,0)"/>
<path d="" fill="#4E4A48" transform="translate(0,0)"/>
<path d="" fill="#504141" transform="translate(0,0)"/>
<path d="" fill="#7E3436" transform="translate(0,0)"/>
<path d="" fill="#6D3235" transform="translate(0,0)"/>
<path d="" fill="#4E3C3A" transform="translate(0,0)"/>
<path d="" fill="#49423F" transform="translate(0,0)"/>
<path d="" fill="#51504F" transform="translate(0,0)"/>
<path d="" fill="#BB2C37" transform="translate(0,0)"/>
<path d="" fill="#B82D39" transform="translate(0,0)"/>
<path d="" fill="#B92D37" transform="translate(0,0)"/>
<path d="" fill="#B92D35" transform="translate(0,0)"/>
<path d="" fill="#BD2B37" transform="translate(0,0)"/>
<path d="" fill="#BD2B36" transform="translate(0,0)"/>
<path d="" fill="#BE2835" transform="translate(0,0)"/>
<path d="" fill="#BC2937" transform="translate(0,0)"/>
<path d="" fill="#BF2A36" transform="translate(0,0)"/>
<path d="" fill="#BC2C38" transform="translate(0,0)"/>
<path d="" fill="#BC2C36" transform="translate(0,0)"/>
<path d="" fill="#BB2B36" transform="translate(0,0)"/>
<path d="" fill="#BD2C36" transform="translate(0,0)"/>
<path d="" fill="#BB2D38" transform="translate(0,0)"/>
<path d="" fill="#BE2D38" transform="translate(0,0)"/>
<path d="" fill="#B82C34" transform="translate(0,0)"/>
<path d="" fill="#BE2B37" transform="translate(0,0)"/>
<path d="" fill="#C12B36" transform="translate(0,0)"/>
<path d="" fill="#BA2C37" transform="translate(0,0)"/>
<path d="" fill="#BC2E36" transform="translate(0,0)"/>
<path d="" fill="#BD2F39" transform="translate(0,0)"/>
<path d="" fill="#9C3339" transform="translate(0,0)"/>
<path d="" fill="#BC2D38" transform="translate(0,0)"/>
<path d="" fill="#BE2C35" transform="translate(0,0)"/>
<path d="" fill="#BD2D37" transform="translate(0,0)"/>
<path d="" fill="#BE2B33" transform="translate(0,0)"/>
<path d="" fill="#BF2833" transform="translate(0,0)"/>
<path d="" fill="#BB2935" transform="translate(0,0)"/>
<path d="" fill="#B62D35" transform="translate(0,0)"/>
<path d="" fill="#BF2D39" transform="translate(0,0)"/>
<path d="" fill="#C22A38" transform="translate(0,0)"/>
<path d="" fill="#BC2937" transform="translate(0,0)"/>
<path d="" fill="#BB2A37" transform="translate(0,0)"/>
<path d="" fill="#B72E38" transform="translate(0,0)"/>
<path d="" fill="#BB2F39" transform="translate(0,0)"/>
<path d="" fill="#C22D37" transform="translate(0,0)"/>
<path d="" fill="#BC2C34" transform="translate(0,0)"/>
<path d="" fill="#C02C38" transform="translate(0,0)"/>
<path d="" fill="#C02C39" transform="translate(0,0)"/>
<path d="" fill="#C02D39" transform="translate(0,0)"/>
<path d="" fill="#BA2E37" transform="translate(0,0)"/>
<path d="" fill="#C42C39" transform="translate(0,0)"/>
<path d="" fill="#BE2E38" transform="translate(0,0)"/>
<path d="" fill="#C22D39" transform="translate(0,0)"/>
<path d="" fill="#BD2B38" transform="translate(0,0)"/>
<path d="" fill="#C02E3A" transform="translate(0,0)"/>
<path d="" fill="#BF2D39" transform="translate(0,0)"/>
<path d="" fill="#C02B38" transform="translate(0,0)"/>
<path d="" fill="#BE2E3A" transform="translate(0,0)"/>
<path d="" fill="#C22C39" transform="translate(0,0)"/>
<path d="" fill="#BC2C38" transform="translate(0,0)"/>
<path d="" fill="#BF2D37" transform="translate(0,0)"/>
<path d="" fill="#C42E38" transform="translate(0,0)"/>
<path d="" fill="#C22A36" transform="translate(0,0)"/>
<path d="" fill="#BD313B" transform="translate(0,0)"/>
<path d="" fill="#C2313B" transform="translate(0,0)"/>
<path d="" fill="#C4323C" transform="translate(0,0)"/>
<path d="" fill="#C23039" transform="translate(0,0)"/>
<path d="" fill="#C2323D" transform="translate(0,0)"/>
<path d="" fill="#BD333B" transform="translate(0,0)"/>
<path d="" fill="#BA303A" transform="translate(0,0)"/>
<path d="" fill="#B9303B" transform="translate(0,0)"/>
<path d="" fill="#BD303C" transform="translate(0,0)"/>
<path d="" fill="#B9303B" transform="translate(0,0)"/>
<path d="" fill="#BE303A" transform="translate(0,0)"/>
<path d="" fill="#C12F3C" transform="translate(0,0)"/>
<path d="" fill="#C02F3B" transform="translate(0,0)"/>
<path d="" fill="#C0333D" transform="translate(0,0)"/>
<path d="" fill="#C0313D" transform="translate(0,0)"/>
<path d="" fill="#C3303D" transform="translate(0,0)"/>
<path d="" fill="#C5303C" transform="translate(0,0)"/>
<path d="" fill="#BD2F3C" transform="translate(0,0)"/>
<path d="" fill="#C02F3B" transform="translate(0,0)"/>
<path d="" fill="#C3313D" transform="translate(0,0)"/>
<path d="" fill="#C0323C" transform="translate(0,0)"/>
<path d="" fill="#BE333D" transform="translate(0,0)"/>
<path d="" fill="#BE313D" transform="translate(0,0)"/>
<path d="" fill="#C1313D" transform="translate(0,0)"/>
<path d="" fill="#B6323D" transform="translate(0,0)"/>
<path d="" fill="#C6313E" transform="translate(0,0)"/>
<path d="" fill="#BE333B" transform="translate(0,0)"/>
<path d="" fill="#C0313A" transform="translate(0,0)"/>
<path d="" fill="#C6323E" transform="translate(0,0)"/>
<path d="" fill="#C12D3A" transform="translate(0,0)"/>
<path d="" fill="#C0333E" transform="translate(0,0)"/>
<path d="" fill="#C6333F" transform="translate(0,0)"/>
<path d="" fill="#943A3F" transform="translate(0,0)"/>
<path d="" fill="#C0313D" transform="translate(0,0)"/>
<path d="" fill="#C7333E" transform="translate(0,0)"/>
<path d="" fill="#C4323E" transform="translate(0,0)"/>
<path d="" fill="#C32D39" transform="translate(0,0)"/>
<path d="" fill="#684446" transform="translate(0,0)"/>
<path d="" fill="#674242" transform="translate(0,0)"/>
<path d="" fill="#C2343F" transform="translate(0,0)"/>
<path d="" fill="#C1353E" transform="translate(0,0)"/>
<path d="" fill="#C5303C" transform="translate(0,0)"/>
<path d="" fill="#C3313D" transform="translate(0,0)"/>
<path d="" fill="#C8333E" transform="translate(0,0)"/>
<path d="" fill="#724141" transform="translate(0,0)"/>
<path d="" fill="#C2353F" transform="translate(0,0)"/>
<path d="" fill="#C73640" transform="translate(0,0)"/>
<path d="" fill="#C9323E" transform="translate(0,0)"/>
<path d="" fill="#C7313E" transform="translate(0,0)"/>
<path d="" fill="#CB3340" transform="translate(0,0)"/>
<path d="" fill="#C4313D" transform="translate(0,0)"/>
<path d="" fill="#C0313D" transform="translate(0,0)"/>
<path d="" fill="#CC2F3F" transform="translate(0,0)"/>
<path d="" fill="#C62A35" transform="translate(0,0)"/>
<path d="" fill="#CA323F" transform="translate(0,0)"/>
<path d="" fill="#C73742" transform="translate(0,0)"/>
<path d="" fill="#CC3742" transform="translate(0,0)"/>
<path d="" fill="#CB3741" transform="translate(0,0)"/>
<path d="" fill="#C7343D" transform="translate(0,0)"/>
<path d="" fill="#C63742" transform="translate(0,0)"/>
<path d="" fill="#CE3141" transform="translate(0,0)"/>
<path d="" fill="#CF3240" transform="translate(0,0)"/>
<path d="" fill="#CD3543" transform="translate(0,0)"/>
<path d="" fill="#CA323E" transform="translate(0,0)"/>
<path d="" fill="#CB3641" transform="translate(0,0)"/>
<path d="" fill="#823F43" transform="translate(0,0)"/>
<path d="" fill="#CD3641" transform="translate(0,0)"/>
<path d="" fill="#CC3542" transform="translate(0,0)"/>
<path d="" fill="#CA3843" transform="translate(0,0)"/>
<path d="" fill="#C83743" transform="translate(0,0)"/>
<path d="" fill="#CA3642" transform="translate(0,0)"/>
<path d="" fill="#CB3641" transform="translate(0,0)"/>
<path d="" fill="#6A4446" transform="translate(0,0)"/>
<path d="" fill="#C93742" transform="translate(0,0)"/>
<path d="" fill="#CD3741" transform="translate(0,0)"/>
<path d="" fill="#CA3A41" transform="translate(0,0)"/>
<path d="" fill="#CB3641" transform="translate(0,0)"/>
<path d="" fill="#CF3644" transform="translate(0,0)"/>
<path d="" fill="#CE3643" transform="translate(0,0)"/>
<path d="" fill="#D13241" transform="translate(0,0)"/>
<path d="" fill="#CC3742" transform="translate(0,0)"/>
<path d="" fill="#CD3441" transform="translate(0,0)"/>
<path d="" fill="#CC3843" transform="translate(0,0)"/>
<path d="" fill="#CB3943" transform="translate(0,0)"/>
<path d="" fill="#C83643" transform="translate(0,0)"/>
<path d="" fill="#CC3541" transform="translate(0,0)"/>
<path d="" fill="#C33641" transform="translate(0,0)"/>
<path d="" fill="#C53744" transform="translate(0,0)"/>
<path d="" fill="#CC3844" transform="translate(0,0)"/>
<path d="" fill="#CD3543" transform="translate(0,0)"/>
<path d="" fill="#C93844" transform="translate(0,0)"/>
<path d="" fill="#C03544" transform="translate(0,0)"/>
<path d="" fill="#C63641" transform="translate(0,0)"/>
<path d="" fill="#C33943" transform="translate(0,0)"/>
<path d="" fill="#C53841" transform="translate(0,0)"/>
<path d="" fill="#D13242" transform="translate(0,0)"/>
<path d="" fill="#C63643" transform="translate(0,0)"/>
<path d="" fill="#D2363F" transform="translate(0,0)"/>
<path d="" fill="#C93740" transform="translate(0,0)"/>
<path d="" fill="#C43844" transform="translate(0,0)"/>
<path d="" fill="#CF3642" transform="translate(0,0)"/>
<path d="" fill="#CC3541" transform="translate(0,0)"/>
<path d="" fill="#614545" transform="translate(0,0)"/>
<path d="" fill="#923F44" transform="translate(0,0)"/>
<path d="" fill="#CC3640" transform="translate(0,0)"/>
<path d="" fill="#C23543" transform="translate(0,0)"/>
<path d="" fill="#C53441" transform="translate(0,0)"/>
<path d="" fill="#CC3742" transform="translate(0,0)"/>
<path d="" fill="#C93241" transform="translate(0,0)"/>
<path d="" fill="#614443" transform="translate(0,0)"/>
<path d="" fill="#CB3440" transform="translate(0,0)"/>
<path d="" fill="#D1353F" transform="translate(0,0)"/>
<path d="" fill="#5F4543" transform="translate(0,0)"/>
<path d="" fill="#6E4041" transform="translate(0,0)"/>
<path d="" fill="#C43441" transform="translate(0,0)"/>
<path d="" fill="#C93342" transform="translate(0,0)"/>
<path d="" fill="#CD3443" transform="translate(0,0)"/>
<path d="" fill="#CE333D" transform="translate(0,0)"/>
<path d="" fill="#D03942" transform="translate(0,0)"/>
<path d="" fill="#CF3943" transform="translate(0,0)"/>
<path d="" fill="#CA3841" transform="translate(0,0)"/>
<path d="" fill="#D13641" transform="translate(0,0)"/>
<path d="" fill="#664042" transform="translate(0,0)"/>
<path d="" fill="#C93442" transform="translate(0,0)"/>
<path d="" fill="#D03443" transform="translate(0,0)"/>
<path d="" fill="#C73742" transform="translate(0,0)"/>
<path d="" fill="#D13944" transform="translate(0,0)"/>
<path d="" fill="#CD3B43" transform="translate(0,0)"/>
<path d="" fill="#C8353F" transform="translate(0,0)"/>
<path d="" fill="#CF3643" transform="translate(0,0)"/>
<path d="" fill="#D03A45" transform="translate(0,0)"/>
<path d="" fill="#CC3A45" transform="translate(0,0)"/>
<path d="" fill="#D03646" transform="translate(0,0)"/>
<path d="" fill="#C93442" transform="translate(0,0)"/>
<path d="" fill="#D23642" transform="translate(0,0)"/>
<path d="" fill="#D53543" transform="translate(0,0)"/>
<path d="" fill="#CE3241" transform="translate(0,0)"/>
<path d="" fill="#CE3841" transform="translate(0,0)"/>
<path d="" fill="#6B4040" transform="translate(0,0)"/>
<path d="" fill="#C7363F" transform="translate(0,0)"/>
<path d="" fill="#C93840" transform="translate(0,0)"/>
<path d="" fill="#D13640" transform="translate(0,0)"/>
<path d="" fill="#D13441" transform="translate(0,0)"/>
<path d="" fill="#D13544" transform="translate(0,0)"/>
<path d="" fill="#D13943" transform="translate(0,0)"/>
<path d="" fill="#D03441" transform="translate(0,0)"/>
<path d="" fill="#CF323F" transform="translate(0,0)"/>
<path d="" fill="#CA3641" transform="translate(0,0)"/>
<path d="" fill="#C8353C" transform="translate(0,0)"/>
<path d="" fill="#D23440" transform="translate(0,0)"/>
<path d="" fill="#CE3642" transform="translate(0,0)"/>
<path d="" fill="#D23742" transform="translate(0,0)"/>
<path d="" fill="#D43741" transform="translate(0,0)"/>
<path d="" fill="#D03B41" transform="translate(0,0)"/>
<path d="" fill="#CE3540" transform="translate(0,0)"/>
<path d="" fill="#D43741" transform="translate(0,0)"/>
<path d="" fill="#CA3440" transform="translate(0,0)"/>
<path d="" fill="#D03940" transform="translate(0,0)"/>
<path d="" fill="#CC3844" transform="translate(0,0)"/>
<path d="" fill="#CA3741" transform="translate(0,0)"/>
<path d="" fill="#584343" transform="translate(0,0)"/>
<path d="" fill="#D23440" transform="translate(0,0)"/>
<path d="" fill="#D13640" transform="translate(0,0)"/>
<path d="" fill="#D03842" transform="translate(0,0)"/>
<path d="" fill="#D03440" transform="translate(0,0)"/>
<path d="" fill="#CA3842" transform="translate(0,0)"/>
<path d="" fill="#D13742" transform="translate(0,0)"/>
<path d="" fill="#CF3942" transform="translate(0,0)"/>
<path d="" fill="#CE3843" transform="translate(0,0)"/>
<path d="" fill="#CC3A44" transform="translate(0,0)"/>
<path d="" fill="#CF3A42" transform="translate(0,0)"/>
<path d="" fill="#D33643" transform="translate(0,0)"/>
<path d="" fill="#D33945" transform="translate(0,0)"/>
<path d="" fill="#D43844" transform="translate(0,0)"/>
<path d="" fill="#C53743" transform="translate(0,0)"/>
<path d="" fill="#CC3B44" transform="translate(0,0)"/>
<path d="" fill="#584343" transform="translate(0,0)"/>
<path d="" fill="#D53943" transform="translate(0,0)"/>
<path d="" fill="#D33542" transform="translate(0,0)"/>
<path d="" fill="#D13844" transform="translate(0,0)"/>
<path d="" fill="#D23841" transform="translate(0,0)"/>
<path d="" fill="#D23642" transform="translate(0,0)"/>
<path d="" fill="#D03942" transform="translate(0,0)"/>
<path d="" fill="#D23944" transform="translate(0,0)"/>
<path d="" fill="#D13A44" transform="translate(0,0)"/>
<path d="" fill="#D23743" transform="translate(0,0)"/>
<path d="" fill="#D13943" transform="translate(0,0)"/>
<path d="" fill="#D23844" transform="translate(0,0)"/>
<path d="" fill="#CF3843" transform="translate(0,0)"/>
<path d="" fill="#D13A46" transform="translate(0,0)"/>
<path d="" fill="#D13641" transform="translate(0,0)"/>
<path d="" fill="#D33240" transform="translate(0,0)"/>
<path d="" fill="#D03642" transform="translate(0,0)"/>
<path d="" fill="#CF3842" transform="translate(0,0)"/>
<path d="" fill="#CE353F" transform="translate(0,0)"/>
<path d="" fill="#D23A45" transform="translate(0,0)"/>
<path d="" fill="#763F42" transform="translate(0,0)"/>
<path d="" fill="#555654" transform="translate(0,0)"/>
<path d="" fill="#5E4A49" transform="translate(0,0)"/>
<path d="" fill="#575555" transform="translate(0,0)"/>
<path d="" fill="#6B4344" transform="translate(0,0)"/>
<path d="" fill="#694747" transform="translate(0,0)"/>
<path d="" fill="#734245" transform="translate(0,0)"/>
<path d="" fill="#794446" transform="translate(0,0)"/>
</svg>
